#define ballon_width 8
#define ballon_height 8
static unsigned char ballon_bits[] = {
   0x7e, 0xc3, 0x81, 0x81, 0xc3, 0x5e, 0x70, 0x60 };
