#define circle_width 12
#define circle_height 12
static unsigned char circle_bits[] = {
   0x00, 0x00, 0xf0, 0x00, 0x90, 0x00, 0xfc, 0x03, 0x07, 0x0e, 0x05, 0x0a,
   0x05, 0x0a, 0x07, 0x0e, 0xfc, 0x03, 0x90, 0x00, 0xf0, 0x00, 0x00, 0x00 };
