#define gimp_width 12
#define gimp_height 12
static unsigned char gimp_bits[] = {
   0x00, 0x00, 0xff, 0x0f, 0x01, 0x08, 0xf1, 0x08, 0x11, 0x08, 0x11, 0x08,
   0xd1, 0x08, 0x91, 0x08, 0xf1, 0x08, 0x01, 0x08, 0xff, 0x0f, 0x00, 0x00 };
