#define gimptab_width 12
#define gimptab_height 12
static unsigned char gimptab_bits[] = {
   0x00, 0x00, 0xff, 0x0f, 0x01, 0x08, 0xbd, 0x0b, 0x05, 0x09, 0x05, 0x09,
   0x35, 0x09, 0x25, 0x09, 0x3d, 0x09, 0x01, 0x08, 0xff, 0x0f, 0x00, 0x00 };
