#define mtalls_width 12
#define mtalls_height 12
static unsigned char mtalls_bits[] = {
   0x00, 0x00, 0x00, 0x00, 0xfe, 0x07, 0xfe, 0x07, 0xfe, 0x07, 0x00, 0x00,
   0x00, 0x00, 0x9e, 0x07, 0x9e, 0x07, 0x9e, 0x07, 0x00, 0x00, 0x00, 0x00 };
