#define tab2_width 12
#define tab2_height 12
static unsigned char tab2_bits[] = {
   0x00, 0x00, 0xff, 0x0f, 0x11, 0x08, 0xf1, 0x0f, 0x11, 0x08, 0x11, 0x08,
   0x11, 0x08, 0x11, 0x08, 0x11, 0x08, 0x11, 0x08, 0xff, 0x0f, 0x00, 0x00 };
