#define tab3_width 12
#define tab3_height 12
static unsigned char tab3_bits[] = {
   0x00, 0x00, 0xff, 0x0f, 0x81, 0x08, 0x81, 0x08, 0x81, 0x08, 0xff, 0x08,
   0x81, 0x08, 0x81, 0x08, 0x81, 0x08, 0x81, 0x08, 0xff, 0x0f, 0x00, 0x00 };
