#define talls_width 12
#define talls_height 12
static unsigned char talls_bits[] = {
   0x00, 0x00, 0x00, 0x00, 0x3e, 0x07, 0x3e, 0x07, 0x3e, 0x07, 0x3e, 0x00,
   0x3e, 0x00, 0x3e, 0x07, 0x3e, 0x07, 0x3e, 0x07, 0x00, 0x00, 0x00, 0x00 };
