#define video_width 8
#define video_height 8
static unsigned char video_bits[] = {
   0xe0, 0x1c, 0x03, 0xff, 0xa5, 0xff, 0xff, 0xff };
