#define boxleft_width 6
#define boxleft_height 12
static unsigned char boxleft_bits[] = {
   0x3e, 0x3e, 0x3e, 0x3e, 0x3e, 0x3e, 0x3e, 0x3e, 0x3e, 0x3e, 0x3e, 0x3e };
