#define chat_width 8
#define chat_height 8
static unsigned char chat_bits[] = {
   0x3c, 0x7e, 0xff, 0xff, 0x7e, 0x3c, 0x0e, 0x03 };
