#define full2_width 12
#define full2_height 12
static unsigned char full2_bits[] = {
   0x00, 0x00, 0xff, 0x0f, 0x01, 0x08, 0x01, 0x08, 0x01, 0x08, 0x01, 0x08,
   0x01, 0x08, 0x01, 0x08, 0x01, 0x08, 0x01, 0x08, 0xff, 0x0f, 0x00, 0x00 };
