#define grid_width 12
#define grid_height 12
static unsigned char grid_bits[] = {
   0x00, 0x00, 0xff, 0x0f, 0x21, 0x08, 0x21, 0x08, 0x21, 0x08, 0xe1, 0x0f,
   0x7f, 0x08, 0x41, 0x08, 0x41, 0x08, 0x41, 0x08, 0xff, 0x0f, 0x00, 0x00 };
