#define onebig_width 12
#define onebig_height 12
static unsigned char onebig_bits[] = {
   0x00, 0x00, 0xff, 0x0f, 0x01, 0x09, 0x01, 0x09, 0x01, 0x0f, 0x01, 0x09,
   0x01, 0x09, 0xff, 0x0f, 0x21, 0x08, 0x21, 0x08, 0xff, 0x0f, 0x00, 0x00 };
