#define spiral_width 12
#define spiral_height 12
static unsigned char spiral_bits[] = {
   0x00, 0x00, 0xff, 0x0f, 0x21, 0x08, 0x21, 0x08, 0x21, 0x08, 0x21, 0x08,
   0xe1, 0x0f, 0x21, 0x09, 0x21, 0x09, 0x21, 0x09, 0xff, 0x0f, 0x00, 0x00 };
