#define tab1_width 12
#define tab1_height 12
static unsigned char tab1_bits[] = {
   0x00, 0x00, 0xff, 0x0f, 0x01, 0x08, 0xff, 0x0f, 0x01, 0x08, 0x01, 0x08,
   0x01, 0x08, 0x01, 0x08, 0x01, 0x08, 0x01, 0x08, 0xff, 0x0f, 0x00, 0x00 };
