#define tall_width 12
#define tall_height 12
static unsigned char tall_bits[] = {
   0x00, 0x00, 0xff, 0x0f, 0x81, 0x08, 0x81, 0x08, 0x81, 0x0f, 0x81, 0x08,
   0x81, 0x08, 0x81, 0x0f, 0x81, 0x08, 0x81, 0x08, 0xff, 0x0f, 0x00, 0x00 };
