#define win_width 8
#define win_height 8
static unsigned char win_bits[] = {
   0xff, 0x81, 0xbd, 0x5a, 0x24, 0x18, 0x18, 0x7e };
