#define arrowl2_width 6
#define arrowl2_height 12
static unsigned char arrowl2_bits[] = {
   0x20, 0x30, 0x38, 0x3c, 0x3e, 0x3f, 0x3f, 0x3e, 0x3c, 0x38, 0x30, 0x20 };
