#define arrowr2_width 6
#define arrowr2_height 12
static unsigned char arrowr2_bits[] = {
   0x1f, 0x1f, 0x1f, 0x1f, 0x1f, 0x1f, 0x1f, 0x1f, 0x1f, 0x1f, 0x1f, 0x1f };
