#define arrowl_width 6
#define arrowl_height 12
static unsigned char arrowl_bits[] = {
   0x3e, 0x3e, 0x3e, 0x3e, 0x3e, 0x3e, 0x3e, 0x3e, 0x3e, 0x3e, 0x3c, 0x38 };
