#define door_width 9
#define door_height 9
static unsigned char door_bits[] = {
   0xfe, 0x00, 0x82, 0x00, 0x82, 0x00, 0x82, 0x00, 0x8e, 0x00, 0x82, 0x00,
   0x82, 0x00, 0x82, 0x00, 0xfe, 0x00 };
