#define halt_width 9
#define halt_height 9
static unsigned char halt_bits[] = {
   0x38, 0x00, 0x44, 0x00, 0x92, 0x00, 0x11, 0x01, 0x11, 0x01, 0x11, 0x01,
   0x92, 0x00, 0x44, 0x00, 0x38, 0x00 };
