#define pacman_width 9
#define pacman_height 9
static unsigned char pacman_bits[] = {
   0x7c, 0x00, 0xee, 0x00, 0xe7, 0x01, 0xff, 0x01, 0x1f, 0x00, 0x0f, 0x00,
   0x3f, 0x00, 0xfe, 0x00, 0x7c, 0x00 };
