#define has_win_width 6
#define has_win_height 11
static unsigned char has_win_bits[] = {
   0x3e, 0x3e, 0x3e, 0x3e, 0x3e, 0x00, 0x00, 0x00, 0x00, 0x00, 0x00 };
