#define load_width 8
#define load_height 8
static unsigned char load_bits[] = {
   0xff, 0x81, 0xa3, 0xd5, 0x89, 0x81, 0xff, 0xff };
