#define mosaic_width 12
#define mosaic_height 12
static unsigned char mosaic_bits[] = {
   0x00, 0x00, 0xff, 0x0f, 0x41, 0x08, 0x41, 0x08, 0x7f, 0x08, 0xc1, 0x0f,
   0x41, 0x08, 0x7f, 0x08, 0x41, 0x08, 0x41, 0x08, 0xff, 0x0f, 0x00, 0x00 };
