#define mtall_width 12
#define mtall_height 12
static unsigned char mtall_bits[] = {
   0x00, 0x00, 0xff, 0x0f, 0x01, 0x08, 0x01, 0x08, 0x01, 0x08, 0x01, 0x08,
   0xff, 0x0f, 0x91, 0x08, 0x91, 0x08, 0x91, 0x08, 0xff, 0x0f, 0x00, 0x00 };
