#define x_width 8
#define x_height 8
static unsigned char x_bits[] = {
   0x00, 0x42, 0x66, 0x3c, 0x18, 0x3c, 0x66, 0x42 };
