#define arrowr_width 6
#define arrowr_height 12
static unsigned char arrowr_bits[] = {
   0x01, 0x03, 0x07, 0x0f, 0x1f, 0x1f, 0x1f, 0x1f, 0x1f, 0x1f, 0x1f, 0x1f };
