#define left_width 9
#define left_height 9
static unsigned char left_bits[] = {
   0xf8, 0x01, 0xfc, 0x01, 0xfc, 0x01, 0xf8, 0x01, 0xf0, 0x01, 0xe0, 0x01,
   0xc0, 0x01, 0x80, 0x01, 0x00, 0x01 };
