#define ac1_width 9
#define ac1_height 9
static unsigned char ac1_bits[] = {
   0x70, 0x00, 0x48, 0x00, 0xc4, 0x01, 0x44, 0x00, 0x47, 0x00, 0x44, 0x00,
   0xc4, 0x01, 0x48, 0x00, 0x70, 0x00 };
