#define shroom_width 9
#define shroom_height 9
static unsigned char shroom_bits[] = {
   0x78, 0x00, 0x84, 0x00, 0x02, 0x01, 0x02, 0x01, 0xfe, 0x01, 0x78, 0x00,
   0x78, 0x00, 0x78, 0x00, 0x78, 0x00 };
